<svg xmlns="http://www.w3.org/2000/svg" fill="none" viewBox="0 0 174 175" height="175" width="174">
<path fill="white" d="M87 0.5C38.9524 0.5 0 39.4524 0 87.5C0 135.548 38.9524 174.5 87 174.5C135.048 174.5 174 135.548 174 87.5C174 39.4524 135.048 0.5 87 0.5ZM87 158.455C47.8751 158.455 16.0446 126.625 16.0446 87.5C16.0446 48.3751 47.87 16.5395 87 16.5395C126.13 16.5395 157.955 48.37 157.955 87.4949C157.955 126.62 126.125 158.45 87 158.45V158.455Z"></path>
<path fill="white" d="M95.1697 79.3331H78.8359V95.6669H95.1697V79.3331Z"></path>
<path fill="white" d="M95.1697 53.5491H78.8359V69.8829H95.1697V53.5491Z"></path>
<path fill="white" d="M95.1697 27.7652H78.8359V44.0989H95.1697V27.7652Z"></path>
</svg>
